<svg width="106" height="28" viewBox="0 0 106 28" fill="none" xmlns="http://www.w3.org/2000/svg">
<path d="M21 16V8.00002C20.9996 7.6493 20.9071 7.30483 20.7315 7.00119C20.556 6.69754 20.3037 6.44539 20 6.27002L13 2.27002C12.696 2.09449 12.3511 2.00208 12 2.00208C11.6489 2.00208 11.304 2.09449 11 2.27002L4 6.27002C3.69626 6.44539 3.44398 6.69754 3.26846 7.00119C3.09294 7.30483 3.00036 7.6493 3 8.00002V16C3.00036 16.3508 3.09294 16.6952 3.26846 16.9989C3.44398 17.3025 3.69626 17.5547 4 17.73L11 21.73C11.304 21.9056 11.6489 21.998 12 21.998C12.3511 21.998 12.696 21.9056 13 21.73L20 17.73C20.3037 17.5547 20.556 17.3025 20.7315 16.9989C20.9071 16.6952 20.9996 16.3508 21 16Z" stroke="#605DEC" stroke-width="2" stroke-linecap="round" stroke-linejoin="round"/>
<path d="M7.5 4.21002L12 6.81002L16.5 4.21002" stroke="#605DEC" stroke-width="2" stroke-linecap="round" stroke-linejoin="round"/>
<path d="M7.5 19.79V14.6L3 12" stroke="#605DEC" stroke-width="2" stroke-linecap="round" stroke-linejoin="round"/>
<path d="M21 12L16.5 14.6V19.79" stroke="#605DEC" stroke-width="2" stroke-linecap="round" stroke-linejoin="round"/>
<path d="M3.27002 6.96002L12 12.01L20.73 6.96002" stroke="#605DEC" stroke-width="2" stroke-linecap="round" stroke-linejoin="round"/>
<path d="M12 22.08V12" stroke="#605DEC" stroke-width="2" stroke-linecap="round" stroke-linejoin="round"/>
<path d="M34.624 22C34.48 22 34.352 21.952 34.24 21.856C34.144 21.744 34.096 21.616 34.096 21.472C34.096 21.408 34.112 21.352 34.144 21.304L39.616 5.944C39.664 5.768 39.768 5.6 39.928 5.44C40.104 5.28 40.336 5.2 40.624 5.2H45.016C45.32 5.2 45.552 5.28 45.712 5.44C45.872 5.6 45.976 5.768 46.024 5.944L51.52 21.304C51.536 21.352 51.544 21.408 51.544 21.472C51.544 21.616 51.488 21.744 51.376 21.856C51.28 21.952 51.16 22 51.016 22H47.32C47.048 22 46.848 21.936 46.72 21.808C46.592 21.68 46.504 21.56 46.456 21.448L45.712 19.432H39.928L39.184 21.448C39.136 21.56 39.048 21.68 38.92 21.808C38.808 21.936 38.608 22 38.32 22H34.624ZM41.032 15.376H44.608L42.808 9.976L41.032 15.376ZM53.5204 22C53.3444 22 53.1924 21.944 53.0644 21.832C52.9524 21.704 52.8964 21.552 52.8964 21.376V5.584C52.8964 5.408 52.9524 5.264 53.0644 5.152C53.1924 5.024 53.3444 4.96 53.5204 4.96H57.0964C57.2564 4.96 57.4004 5.024 57.5284 5.152C57.6564 5.264 57.7204 5.408 57.7204 5.584V21.376C57.7204 21.552 57.6564 21.704 57.5284 21.832C57.4004 21.944 57.2564 22 57.0964 22H53.5204ZM60.8329 26.56C60.6569 26.56 60.5049 26.496 60.3769 26.368C60.2649 26.256 60.2089 26.112 60.2089 25.936V10.144C60.2089 9.968 60.2649 9.824 60.3769 9.712C60.5049 9.584 60.6569 9.52 60.8329 9.52H64.2169C64.3929 9.52 64.5369 9.584 64.6489 9.712C64.7769 9.824 64.8409 9.968 64.8409 10.144V10.936C65.2249 10.456 65.7129 10.064 66.3049 9.76C66.8969 9.44 67.6249 9.28 68.4889 9.28C69.2409 9.28 69.9129 9.392 70.5049 9.616C71.1129 9.84 71.6409 10.184 72.0889 10.648C72.5369 11.096 72.8889 11.672 73.1449 12.376C73.4009 13.08 73.5529 13.904 73.6009 14.848C73.6169 15.184 73.6249 15.488 73.6249 15.76C73.6249 16.032 73.6169 16.344 73.6009 16.696C73.5689 17.592 73.4249 18.384 73.1689 19.072C72.9129 19.76 72.5609 20.344 72.1129 20.824C71.6649 21.288 71.1369 21.64 70.5289 21.88C69.9209 22.12 69.2409 22.24 68.4889 22.24C67.7529 22.24 67.1049 22.12 66.5449 21.88C65.9849 21.624 65.5209 21.232 65.1529 20.704V25.936C65.1529 26.112 65.0889 26.256 64.9609 26.368C64.8329 26.496 64.6889 26.56 64.5289 26.56H60.8329ZM66.8569 18.496C67.2729 18.496 67.5929 18.416 67.8169 18.256C68.0569 18.08 68.2249 17.848 68.3209 17.56C68.4329 17.256 68.5049 16.912 68.5369 16.528C68.5849 16.016 68.5849 15.504 68.5369 14.992C68.5049 14.608 68.4329 14.272 68.3209 13.984C68.2249 13.68 68.0569 13.448 67.8169 13.288C67.5929 13.112 67.2729 13.024 66.8569 13.024C66.4409 13.024 66.1049 13.112 65.8489 13.288C65.6089 13.464 65.4329 13.696 65.3209 13.984C65.2249 14.272 65.1689 14.592 65.1529 14.944C65.1369 15.28 65.1289 15.584 65.1289 15.856C65.1289 16.112 65.1369 16.408 65.1529 16.744C65.1689 17.08 65.2329 17.376 65.3449 17.632C65.4729 17.888 65.6569 18.096 65.8969 18.256C66.1369 18.416 66.4569 18.496 66.8569 18.496ZM76.3486 22C76.1726 22 76.0206 21.944 75.8926 21.832C75.7806 21.704 75.7246 21.552 75.7246 21.376V5.584C75.7246 5.408 75.7806 5.264 75.8926 5.152C76.0206 5.024 76.1726 4.96 76.3486 4.96H80.2366C80.3966 4.96 80.5406 5.024 80.6686 5.152C80.7966 5.264 80.8606 5.408 80.8606 5.584V10.84C81.2766 10.36 81.7966 9.984 82.4206 9.712C83.0606 9.424 83.7806 9.28 84.5806 9.28C85.4446 9.28 86.2366 9.48 86.9566 9.88C87.6926 10.28 88.2766 10.88 88.7086 11.68C89.1566 12.48 89.3806 13.488 89.3806 14.704V21.376C89.3806 21.552 89.3166 21.704 89.1886 21.832C89.0606 21.944 88.9166 22 88.7566 22H84.8446C84.6686 22 84.5166 21.944 84.3886 21.832C84.2766 21.704 84.2206 21.552 84.2206 21.376V14.872C84.2206 14.28 84.0766 13.824 83.7886 13.504C83.5006 13.184 83.0926 13.024 82.5646 13.024C82.0366 13.024 81.6206 13.184 81.3166 13.504C81.0126 13.824 80.8606 14.28 80.8606 14.872V21.376C80.8606 21.552 80.7966 21.704 80.6686 21.832C80.5406 21.944 80.3966 22 80.2366 22H76.3486ZM95.5964 22.24C94.7164 22.24 93.9244 22.072 93.2204 21.736C92.5324 21.4 91.9884 20.952 91.5884 20.392C91.2044 19.816 91.0124 19.176 91.0124 18.472C91.0124 17.32 91.4764 16.416 92.4044 15.76C93.3484 15.088 94.6044 14.624 96.1724 14.368L98.9324 13.936V13.768C98.9324 13.272 98.8524 12.904 98.6924 12.664C98.5484 12.408 98.2364 12.28 97.7564 12.28C97.4204 12.28 97.1484 12.344 96.9404 12.472C96.7324 12.6 96.5404 12.784 96.3644 13.024C96.2044 13.2 95.9964 13.288 95.7404 13.288H92.3564C92.1804 13.288 92.0444 13.24 91.9484 13.144C91.8524 13.048 91.8124 12.92 91.8284 12.76C91.8444 12.472 91.9644 12.136 92.1884 11.752C92.4124 11.352 92.7564 10.968 93.2204 10.6C93.7004 10.216 94.3164 9.904 95.0684 9.664C95.8204 9.408 96.7244 9.28 97.7804 9.28C98.8524 9.28 99.7724 9.4 100.54 9.64C101.308 9.88 101.94 10.216 102.436 10.648C102.932 11.08 103.3 11.608 103.54 12.232C103.78 12.84 103.9 13.52 103.9 14.272V21.376C103.9 21.552 103.836 21.704 103.708 21.832C103.596 21.944 103.452 22 103.276 22H99.7724C99.6124 22 99.4684 21.944 99.3404 21.832C99.2124 21.704 99.1484 21.552 99.1484 21.376V20.608C98.9404 20.928 98.6604 21.208 98.3084 21.448C97.9724 21.688 97.5724 21.88 97.1084 22.024C96.6604 22.168 96.1564 22.24 95.5964 22.24ZM96.9884 19.096C97.3884 19.096 97.7324 19.016 98.0204 18.856C98.3244 18.68 98.5644 18.416 98.7404 18.064C98.9164 17.712 99.0044 17.272 99.0044 16.744V16.576L97.2764 16.912C96.6844 17.024 96.2684 17.192 96.0284 17.416C95.7884 17.624 95.6684 17.856 95.6684 18.112C95.6684 18.304 95.7244 18.472 95.8364 18.616C95.9484 18.76 96.1004 18.88 96.2924 18.976C96.5004 19.056 96.7324 19.096 96.9884 19.096Z" fill="#605DEC"/>
</svg>
